# File created by Blade
# Date/Time:  Tue Jan 27 19:23:16 2015
# Frame Rate: 120.000 fps
#------------------------------------------------------
:FULLY-SPECIFIED
:DEGREES
3147
root 2.871361 32.290791 0.710660 -3.313116 -3.389797 0.170972
Spine 2.087813 -7.855480 0.637775
Head 16.604748 -17.755219 -8.091143
LeftShoulder -7.982210 -3.166428 25.004347
LeftArm -4.955704 41.601682 -104.411616
LeftForeArm 6.041742 -0.000000 14.112301
LeftHand 9.536708 -0.000000 -5.579764
LeftHandThumb1 -26.253704 0.000000 33.147579
RightShoulder -20.847782 -9.519401 -45.631933
RightArm -8.175160 56.221640 22.792464
RightForeArm 10.162185 -0.000000 26.080595
RightHand 22.618706 -0.000000 -11.299339
RightHandThumb1 -24.326973 -0.000000 -32.862282
LeftUpLeg 11.982443 6.607213 2.468316
LeftLeg 0.710107 -0.000000 -0.000000
LeftFoot -17.389649 11.943745 -24.452780
LeftToeBase 16.635324 -0.000000 -0.000000
RightUpLeg 8.854954 -3.712283 3.652131
RightLeg 0.881972 -0.000000 -0.000000
RightFoot -12.968978 -14.856918 13.049728
RightToeBase 11.347623 -0.000000 -0.000000
3148
root 2.872807 32.290485 0.710677 -3.308981 -3.406294 0.169685
Spine 2.086996 -7.836150 0.629797
Head 16.673534 -17.839483 -8.105356
LeftShoulder -7.987445 -3.188419 25.036854
LeftArm -4.973129 41.637377 -104.410135
LeftForeArm 6.065130 -0.000000 14.061966
LeftHand 9.576910 -0.000000 -5.656355
LeftHandThumb1 -26.253704 0.000000 33.147579
RightShoulder -20.745692 -9.456090 -45.690795
RightArm -8.021210 55.725483 23.069968
RightForeArm 10.498431 -0.000000 24.029286
RightHand 22.734676 -0.000000 -11.421502
RightHandThumb1 -24.326973 -0.000000 -32.862282
LeftUpLeg 11.985948 6.636929 2.473118
LeftLeg 0.691645 -0.000000 -0.000000
LeftFoot -17.431588 11.928085 -24.533027
LeftToeBase 16.830228 -0.000000 -0.000000
RightUpLeg 8.852401 -3.707673 3.647468
RightLeg 0.877962 -0.000000 -0.000000
RightFoot -12.968740 -14.825710 13.067071
RightToeBase 11.409802 -0.000000 -0.000000
3149
root 2.874591 32.290120 0.709858 -3.294431 -3.422464 0.162988
Spine 2.078798 -7.790121 0.631282
Head 16.735493 -17.932364 -8.102954
LeftShoulder -7.981816 -3.213524 25.064887
LeftArm -4.973494 41.703743 -104.399519
LeftForeArm 6.078253 -0.000000 14.015735
LeftHand 9.582422 -0.000000 -5.651649
LeftHandThumb1 -26.253704 0.000000 33.147579
RightShoulder -20.685808 -9.421152 -45.726761
RightArm -7.768158 55.193958 23.426464
RightForeArm 10.550372 -0.000000 21.990538
RightHand 22.738208 -0.000000 -11.689037
RightHandThumb1 -24.326973 -0.000000 -32.862282
LeftUpLeg 11.970169 6.638369 2.473234
LeftLeg 0.697551 -0.000000 -0.000000
LeftFoot -17.455797 11.930369 -24.577625
LeftToeBase 16.756292 -0.000000 -0.000000
RightUpLeg 8.838617 -3.701916 3.650214
RightLeg 0.871047 -0.000000 -0.000000
RightFoot -12.966464 -14.804187 13.080076
RightToeBase 11.454899 -0.000000 -0.000000
3150
root 2.876281 32.289158 0.710153 -3.289280 -3.431393 0.164519
Spine 2.078900 -7.758684 0.617017
Head 16.787625 -18.003325 -8.085173
LeftShoulder -7.993615 -3.217006 25.099908
LeftArm -4.950848 41.785851 -104.377296
LeftForeArm 6.083276 -0.000000 13.973857
LeftHand 9.590980 0.000000 -5.667089
LeftHandThumb1 -26.253704 0.000000 33.147579
RightShoulder -20.633849 -9.370540 -45.762983
RightArm -7.519009 54.743869 23.834296
RightForeArm 10.279340 -0.000000 20.095254
RightHand 22.252133 -0.000000 -11.898842
RightHandThumb1 -24.326973 -0.000000 -32.862282
LeftUpLeg 11.967489 6.656227 2.469980
LeftLeg 0.697787 -0.000000 -0.000000
LeftFoot -17.451771 11.922205 -24.554371
LeftToeBase 16.820848 -0.000000 -0.000000
RightUpLeg 8.836364 -3.700705 3.644449
RightLeg 0.865685 -0.000000 -0.000000
RightFoot -12.965500 -14.797337 13.067932
RightToeBase 11.423800 -0.000000 -0.000000
3151
root 2.877477 32.288463 0.709406 -3.280808 -3.443194 0.160980
Spine 2.077994 -7.703127 0.612672
Head 16.838804 -18.115403 -8.078649
LeftShoulder -7.990611 -3.226703 25.126065
LeftArm -4.927573 41.844321 -104.338507
LeftForeArm 6.140750 -0.000000 13.970970
LeftHand 9.541195 -0.000000 -5.634517
LeftHandThumb1 -26.253704 0.000000 33.147579
RightShoulder -20.608477 -9.275110 -45.816627
RightArm -7.347933 54.161801 24.217566
RightForeArm 10.516318 0.000000 18.345653
RightHand 22.651501 -0.000000 -12.901447
RightHandThumb1 -24.326973 -0.000000 -32.862282
LeftUpLeg 11.958409 6.650961 2.468116
LeftLeg 0.701570 -0.000000 -0.000000
LeftFoot -17.480770 11.930445 -24.561445
LeftToeBase 16.919746 -0.000000 -0.000000
RightUpLeg 8.829336 -3.689398 3.645516
RightLeg 0.860851 -0.000000 -0.000000
RightFoot -12.966859 -14.776703 13.076610
RightToeBase 11.452042 -0.000000 -0.000000
3152
root 2.878419 32.287578 0.708352 -3.266224 -3.442588 0.161131
Spine 2.070911 -7.672151 0.597579
Head 16.884402 -18.195424 -8.043651
LeftShoulder -8.003061 -3.244490 25.156952
LeftArm -4.927238 41.878740 -104.309423
LeftForeArm 6.198194 -0.000000 13.971631
LeftHand 9.490012 -0.000000 -5.627305
LeftHandThumb1 -26.253704 0.000000 33.147579
RightShoulder -20.582075 -9.164633 -45.848881
RightArm -7.207551 53.684541 24.588443
RightForeArm 10.689756 -0.000000 16.671346
RightHand 22.781849 -0.000000 -13.004437
RightHandThumb1 -24.326973 -0.000000 -32.862282
LeftUpLeg 11.936265 6.652946 2.464813
LeftLeg 0.712985 -0.000000 -0.000000
LeftFoot -17.475452 11.925942 -24.545690
LeftToeBase 16.800320 -0.000000 -0.000000
RightUpLeg 8.819740 -3.710751 3.642168
RightLeg 0.844142 -0.000000 -0.000000
RightFoot -12.960207 -14.772904 13.067283
RightToeBase 11.422574 -0.000000 -0.000000
3153
root 2.880888 32.286595 0.708582 -3.265373 -3.433245 0.158401
Spine 2.073660 -7.655174 0.595645
Head 16.938693 -18.226476 -8.036111
LeftShoulder -8.009416 -3.245236 25.175531
LeftArm -4.913142 41.878374 -104.270863
LeftForeArm 6.269944 0.000000 13.985544
LeftHand 9.468472 0.000000 -5.580590
LeftHandThumb1 -26.253704 0.000000 33.147579
RightShoulder -20.560264 -9.086977 -45.909925
RightArm -7.067218 53.347489 25.046532
RightForeArm 10.867541 0.000000 15.140252
RightHand 22.832873 -0.000000 -12.923258
RightHandThumb1 -24.326973 -0.000000 -32.862282
LeftUpLeg 11.931670 6.663710 2.466612
LeftLeg 0.717814 -0.000000 -0.000000
LeftFoot -17.484902 11.902740 -24.538686
LeftToeBase 16.850273 -0.000000 -0.000000
RightUpLeg 8.840562 -3.773790 3.631179
RightLeg 0.805864 -0.000000 -0.000000
RightFoot -12.933180 -14.718083 13.035587
RightToeBase 11.414659 -0.000000 -0.000000
3154
root 2.881861 32.285649 0.707874 -3.259346 -3.420239 0.162083
Spine 2.073448 -7.621867 0.573878
Head 16.983110 -18.292776 -7.984179
LeftShoulder -7.999586 -3.246174 25.198834
LeftArm -4.900851 41.847005 -104.217345
LeftForeArm 6.331762 -0.000000 14.035227
LeftHand 9.406463 -0.000000 -5.519222
LeftHandThumb1 -26.253704 0.000000 33.147579
RightShoulder -20.560409 -9.073872 -45.902667
RightArm -6.917089 53.064560 25.515944
RightForeArm 11.299680 -0.000000 13.716667
RightHand 22.773388 -0.000000 -12.807274
RightHandThumb1 -24.326973 -0.000000 -32.862282
LeftUpLeg 11.914796 6.621203 2.455532
LeftLeg 0.733835 -0.000000 -0.000000
LeftFoot -17.517066 11.898720 -24.595440
LeftToeBase 16.888076 -0.000000 -0.000000
RightUpLeg 8.841070 -3.777596 3.624998
RightLeg 0.795744 -0.000000 -0.000000
RightFoot -12.955270 -14.715114 13.068003
RightToeBase 11.474741 -0.000000 -0.000000
3155
root 2.883355 32.284492 0.706008 -3.244637 -3.410077 0.170945
Spine 2.065577 -7.601087 0.548908
Head 17.022255 -18.356067 -7.932807
LeftShoulder -8.009849 -3.234786 25.228283
LeftArm -4.866802 41.812625 -104.165571
LeftForeArm 6.284305 -0.000000 14.034507
LeftHand 9.479503 0.000000 -5.470633
LeftHandThumb1 -26.253704 0.000000 33.147579
RightShoulder -20.566207 -9.101686 -45.883145
RightArm -6.684064 52.748361 26.086183
RightForeArm 11.808579 -0.000000 12.345575
RightHand 23.077592 0.000000 -13.083922
RightHandThumb1 -24.326973 -0.000000 -32.862282
LeftUpLeg 11.888186 6.624922 2.443100
LeftLeg 0.746157 -0.000000 -0.000000
LeftFoot -17.513908 11.893558 -24.568043
LeftToeBase 16.815800 -0.000000 -0.000000
RightUpLeg 8.812702 -3.737853 3.621362
RightLeg 0.818486 -0.000000 -0.000000
RightFoot -12.998226 -14.737572 13.096120
RightToeBase 11.476775 -0.000000 -0.000000
3156
root 2.883930 32.283878 0.703423 -3.230086 -3.393976 0.170325
Spine 2.063013 -7.572237 0.530955
Head 17.053082 -18.413815 -7.867570
LeftShoulder -8.011143 -3.225084 25.247267
LeftArm -4.830859 41.743093 -104.097664
LeftForeArm 6.335112 0.000000 14.071918
LeftHand 9.515294 -0.000000 -5.451436
LeftHandThumb1 -26.253704 0.000000 33.147579
RightShoulder -20.581886 -9.197909 -45.845675
RightArm -6.519769 52.591831 26.686182
RightForeArm 12.386079 -0.000000 11.215319
RightHand 23.133425 -0.000000 -13.018839
RightHandThumb1 -24.326973 -0.000000 -32.862282
LeftUpLeg 11.859077 6.615078 2.437830
LeftLeg 0.766888 -0.000000 -0.000000
LeftFoot -17.473501 11.896104 -24.450639
LeftToeBase 16.614366 -0.000000 -0.000000
RightUpLeg 8.797323 -3.744592 3.622196
RightLeg 0.814958 -0.000000 -0.000000
RightFoot -13.002915 -14.751672 13.093890
RightToeBase 11.508481 -0.000000 -0.000000
